# xmcd
#
# Track frame offsets:
#	150
#	11977
#	27900
#	42335
#	53630
#	70010
#	82467
#	95355
#	115927
#	126490
#	141232
#	152442
#
# Disc length: 2181 seconds
#
# Revision: 1
# Processed by: cddbd v1.5.1PL2 Copyright (c) Steve Scherf et al.
# Submitted via: audiograbber 1.82.01
#
DISCID=a508830c
DTITLE=Roger Bellow - On the Road to Prosperity
DYEAR=1991
DGENRE=Country
TTITLE0=Did the Man in the Moon Come from Texas?
TTITLE1=Are You Teasing Me?
TTITLE2=The Kind of Love I Can't Forget
TTITLE3=There She Goes
TTITLE4=I'm the Talk of the Town
TTITLE5=Kentucky Means Paradise
TTITLE6=Out of Business
TTITLE7=I Wonder Where You Are Tonight
TTITLE8=I Can't Go on this Way
TTITLE9=Blues in My Heart
TTITLE10=The World is Waiting for the Sunrise
TTITLE11=Keep on the Sunnyside
EXTD=
EXTT0=
EXTT1=
EXTT2=
EXTT3=
EXTT4=
EXTT5=
EXTT6=
EXTT7=
EXTT8=
EXTT9=
EXTT10=
EXTT11=
PLAYORDER=
